<?xml version="1.0" encoding="iso-8859-1"?>
<!-- Generator: Adobe Illustrator 18.0.0, SVG Export Plug-In . SVG Version: 6.00 Build 0)  -->
<svg version="1.2" baseProfile="tiny" id="&#x421;&#x43B;&#x43E;&#x439;_1"
	 xmlns="http://www.w3.org/2000/svg" xmlns:xlink="http://www.w3.org/1999/xlink" x="0px" y="0px" width="240px" height="94px"
	 viewBox="0 0 240 94" xml:space="preserve">
<polygon fill="#E40032" points="88.3,9.7 40.6,30.8 40.6,30.9 135.8,30.9 "/>
<polygon fill="#E40032" points="24.9,53.9 24.9,37.3 6.2,45.6 "/>
<polygon fill="#E40032" points="88.3,81.8 135.9,60.6 40.6,60.6 "/>
<polygon fill="#272425" points="101.5,52 84.3,52 84.3,34.7 79.5,34.7 79.5,56.8 106.4,56.8 106.4,34.7 101.5,34.7 "/>
<polygon fill="#272425" points="63.2,39.3 58.4,39.3 58.4,56.8 63.3,56.8 63.3,39.5 76.7,39.5 76.7,34.7 63.2,34.7 "/>
<path fill="#272425" d="M33.5,26.1h-4.8v30.7h27V34.7H33.5V26.1z M50.8,52H33.5V39.5h17.3V52z"/>
<path fill="#272425" d="M170.7,56.8h25.9V34.7h-25.9V56.8z M175.5,39.5h16.2V52h-16.2V39.5z"/>
<polygon fill="#272425" points="110.2,48.2 131.4,48.2 131.4,52 110.2,52 110.2,56.8 136.2,56.8 136.2,43.4 115,43.4 115,39.5 
	136.2,39.5 136.2,34.7 110.2,34.7 "/>
<polygon fill="#272425" points="226.7,34.7 220,34.7 213.1,42.1 206.3,34.7 199.6,34.7 209.8,45.8 199.5,56.8 206.2,56.8 213,49.4 
	219.9,56.8 226.6,56.8 216.4,45.8 "/>
<path fill="#272425" d="M144.8,26.1h-4.8v30.7h26.8V34.7h-22V26.1z M161.9,52h-17.1V39.5h17.1V52z"/>
<g>
	<path fill="none" d="M164.5,79.5h-1v1.9h1c0.8,0,1.1-0.3,1.1-1C165.7,79.8,165.3,79.5,164.5,79.5z"/>
	<path fill="none" d="M215.5,70.7h1c0.8,0,1.1-0.3,1.1-1c0-0.6-0.4-1-1.1-1h-1V70.7z"/>
	<path fill="none" d="M177.2,67.4c0-0.6-0.4-1-1.1-1h-1.3v1.9h1.3C176.8,68.3,177.2,68,177.2,67.4z"/>
	<path fill="none" d="M162.4,66.2c-0.6,0-1,0.2-1.3,0.6c-0.3,0.4-0.5,1-0.5,1.7c0,0.7,0.2,1.3,0.5,1.7c0.3,0.4,0.8,0.6,1.3,0.6
		c0.6,0,1-0.2,1.3-0.6c0.3-0.4,0.5-1,0.5-1.7c0-0.7-0.2-1.3-0.5-1.7C163.3,66.4,162.9,66.2,162.4,66.2z"/>
	<path fill="none" d="M170.5,67.1c0-0.3-0.1-0.5-0.3-0.6c-0.2-0.1-0.5-0.2-0.8-0.2h-1.3v1.6h1.3C170.1,67.9,170.5,67.6,170.5,67.1z"
		/>
	<path fill="none" d="M131.2,80.9c0.3-0.4,0.5-1,0.5-1.7c0-0.7-0.2-1.3-0.5-1.7c-0.3-0.4-0.8-0.6-1.3-0.6c-0.6,0-1,0.2-1.3,0.6
		c-0.3,0.4-0.5,1-0.5,1.7c0,0.7,0.2,1.3,0.5,1.7c0.3,0.4,0.8,0.6,1.3,0.6C130.4,81.5,130.8,81.3,131.2,80.9z"/>
	<path fill="none" d="M169.5,68.9h-1.4v1.8h1.5c0.4,0,0.7-0.1,0.9-0.2c0.2-0.1,0.3-0.4,0.3-0.7c0-0.4-0.1-0.6-0.4-0.7
		C170.2,68.9,169.9,68.9,169.5,68.9z"/>
	<path fill="none" d="M221.9,81.4h1c0.8,0,1.1-0.3,1.1-1c0-0.6-0.4-1-1.1-1h-1V81.4z"/>
	<path fill="none" d="M145.2,80.9c0.3-0.4,0.5-1,0.5-1.7c0-0.7-0.2-1.3-0.5-1.7c-0.3-0.4-0.8-0.6-1.3-0.6c-0.6,0-1,0.2-1.3,0.6
		c-0.3,0.4-0.5,1-0.5,1.7c0,0.7,0.2,1.3,0.5,1.7c0.3,0.4,0.8,0.6,1.3,0.6C144.5,81.5,144.9,81.3,145.2,80.9z"/>
	<path fill="none" d="M229.9,28.5c-1.4,0-2.6,1.2-2.6,2.6s1.2,2.7,2.6,2.6c1.3,0,2.5-1.2,2.5-2.6S231.4,28.5,229.9,28.5z
		 M230.8,32.7c-0.1-0.2-0.1-0.2-0.1-0.8c0-0.3,0-0.6-0.7-0.6h-0.5v1.3h-0.8v-3.2h1.4c0.4,0,1.1,0.1,1.1,0.9c0,0.2-0.1,0.5-0.5,0.8
		c0.4,0.1,0.4,0.5,0.5,0.8c0,0.5,0,0.6,0.1,0.8H230.8z"/>
	<path fill="none" d="M229.9,30h-0.6v1h0.7c0.5,0,0.6-0.3,0.6-0.5C230.6,30.1,230.3,30,229.9,30z"/>
	<path fill="#272425" d="M229.9,28c-1.8,0-3.2,1.4-3.2,3.1c0,1.7,1.3,3.2,3.2,3.2c1.7,0,3.1-1.4,3.1-3.2C233,29.4,231.7,28,229.9,28
		z M229.9,33.7c-1.4,0.1-2.6-1.2-2.6-2.6s1.2-2.6,2.6-2.6c1.4,0,2.5,1.2,2.5,2.6S231.3,33.7,229.9,33.7z"/>
	<path fill="#272425" d="M230.8,31.2c0.4-0.3,0.5-0.6,0.5-0.8c0-0.8-0.7-0.9-1.1-0.9h-1.4v3.2h0.8v-1.3h0.5c0.7,0,0.7,0.3,0.7,0.6
		c0,0.6,0,0.6,0.1,0.8h0.6c-0.1-0.2-0.1-0.3-0.1-0.8C231.2,31.7,231.2,31.3,230.8,31.2z M230,31h-0.7v-1h0.6c0.4,0,0.7,0.1,0.7,0.5
		C230.6,30.7,230.5,31,230,31z"/>
	<path fill="#272525" d="M154.4,66.6c0.3-0.2,0.6-0.3,1-0.3c0.4,0,0.7,0.1,1,0.3c0.3,0.2,0.4,0.5,0.5,0.9h1.4
		c-0.1-0.7-0.4-1.3-0.9-1.7c-0.5-0.4-1.2-0.7-2-0.7c-1,0-1.8,0.3-2.4,1c-0.6,0.7-0.9,1.5-0.9,2.5c0,1.1,0.3,1.9,0.9,2.5
		c0.6,0.6,1.4,1,2.3,1c0.9,0,1.6-0.2,2.1-0.7c0.5-0.5,0.8-1.2,0.9-2h-1.5c-0.1,1-0.6,1.5-1.5,1.5c-0.5,0-1-0.2-1.3-0.6
		c-0.3-0.4-0.5-1-0.5-1.6c0-0.4,0.1-0.8,0.2-1.1C153.9,67.1,154.1,66.8,154.4,66.6z"/>
	<path fill="#272525" d="M162.4,65c-1,0-1.8,0.3-2.4,1c-0.6,0.6-0.9,1.5-0.9,2.5c0,1,0.3,1.9,0.9,2.5c0.6,0.6,1.4,1,2.4,1
		c1,0,1.8-0.3,2.4-1c0.6-0.6,0.9-1.5,0.9-2.5c0-1-0.3-1.9-0.9-2.5C164.1,65.4,163.3,65,162.4,65z M163.7,70.2
		c-0.3,0.4-0.8,0.6-1.3,0.6c-0.6,0-1-0.2-1.3-0.6c-0.3-0.4-0.5-1-0.5-1.7c0-0.7,0.2-1.2,0.5-1.7c0.3-0.4,0.8-0.6,1.3-0.6
		c0.6,0,1,0.2,1.3,0.6c0.3,0.4,0.5,1,0.5,1.7C164.2,69.2,164,69.8,163.7,70.2z"/>
	<path fill="#272525" d="M171.7,67.7c0.2-0.2,0.2-0.5,0.2-0.8c0-0.6-0.2-1-0.6-1.3c-0.4-0.3-0.9-0.4-1.5-0.4h-3.2v6.7h3.3
		c0.7,0,1.2-0.2,1.6-0.5s0.6-0.8,0.6-1.5c0-0.9-0.4-1.4-1.2-1.6C171.3,68.1,171.5,67.9,171.7,67.7z M168.1,66.3h1.3
		c0.3,0,0.6,0.1,0.8,0.2c0.2,0.1,0.3,0.3,0.3,0.6c0,0.5-0.4,0.8-1.1,0.8h-1.3V66.3z M170.4,70.5c-0.2,0.1-0.5,0.2-0.9,0.2h-1.5v-1.8
		h1.4c0.4,0,0.7,0.1,1,0.2c0.2,0.1,0.4,0.4,0.4,0.7C170.8,70.2,170.7,70.4,170.4,70.5z"/>
	<path fill="#272525" d="M176.2,69.5c0.7,0,1.3-0.2,1.7-0.5c0.4-0.4,0.7-0.9,0.7-1.6c0-0.7-0.2-1.2-0.7-1.6c-0.4-0.4-1-0.5-1.8-0.5
		h-2.9v6.7h1.5v-2.4H176.2z M174.7,66.4h1.3c0.8,0,1.1,0.3,1.1,1c0,0.6-0.4,1-1.1,1h-1.3V66.4z"/>
	<polygon fill="#272525" points="184.5,66.4 184.5,65.2 179.5,65.2 179.5,71.9 184.6,71.9 184.6,70.6 181,70.6 181,69 184.2,69 
		184.2,67.8 181,67.8 181,66.4 	"/>
	<polygon fill="#272525" points="192.8,65.2 190.7,65.2 189.2,69.8 187.7,65.2 185.6,65.2 185.6,71.9 187,71.9 187,67.2 188.6,71.9 
		189.8,71.9 191.4,67.1 191.4,71.9 192.8,71.9 	"/>
	<polygon fill="#272525" points="199.1,66.4 199.1,65.2 194.1,65.2 194.1,71.9 199.2,71.9 199.2,70.6 195.5,70.6 195.5,69 198.8,69 
		198.8,67.8 195.5,67.8 195.5,66.4 	"/>
	<polygon fill="#272525" points="200.2,65.2 200.2,71.9 201.6,71.9 201.6,69 204.3,69 204.3,71.9 205.8,71.9 205.8,65.2 204.3,65.2 
		204.3,67.7 201.6,67.7 201.6,65.2 	"/>
	<polygon fill="#272525" points="207.1,65.2 207.1,71.9 208.6,71.9 208.6,69 211.3,69 211.3,71.9 212.8,71.9 212.8,65.2 211.3,65.2 
		211.3,67.7 208.6,67.7 208.6,65.2 	"/>
	<path fill="#272525" d="M214.1,65.2v6.7h2.6c0.8,0,1.3-0.2,1.8-0.5c0.4-0.4,0.7-0.9,0.7-1.6c0-0.7-0.2-1.2-0.7-1.6
		c-0.4-0.4-1-0.5-1.7-0.5h-1.2v-2.4H214.1z M216.5,68.7c0.8,0,1.1,0.3,1.1,1c0,0.6-0.4,1-1.1,1h-1v-1.9H216.5z"/>
	<rect x="219.8" y="65.2" fill="#272525" width="1.5" height="6.7"/>
	<polygon fill="#272525" points="227.6,66.4 227.6,65.2 222.6,65.2 222.6,71.9 227.6,71.9 227.6,70.6 224,70.6 224,69 227.3,69 
		227.3,67.8 224,67.8 224,66.4 	"/>
	<path fill="#272525" d="M132.2,81.8c0.6-0.6,0.9-1.5,0.9-2.5c0-1-0.3-1.9-0.9-2.5c-0.6-0.6-1.4-1-2.4-1c-1,0-1.8,0.3-2.4,1
		c-0.6,0.6-0.9,1.5-0.9,2.5c0,1,0.3,1.9,0.9,2.5c0.6,0.6,1.4,1,2.4,1C130.8,82.7,131.6,82.4,132.2,81.8z M128.5,80.9
		c-0.3-0.4-0.5-1-0.5-1.7c0-0.7,0.2-1.2,0.5-1.7c0.3-0.4,0.8-0.6,1.3-0.6c0.6,0,1,0.2,1.3,0.6c0.3,0.4,0.5,1,0.5,1.7
		c0,0.7-0.2,1.3-0.5,1.7c-0.3,0.4-0.8,0.6-1.3,0.6C129.3,81.5,128.8,81.3,128.5,80.9z"/>
	<polygon fill="#272525" points="134.1,75.9 134.1,82.6 135.6,82.6 135.6,80.4 136.4,79.6 138.5,82.6 140.3,82.6 137.4,78.5 
		140,75.9 138.2,75.9 135.6,78.7 135.6,75.9 	"/>
	<path fill="#272525" d="M146.3,81.8c0.6-0.6,0.9-1.5,0.9-2.5c0-1-0.3-1.9-0.9-2.5c-0.6-0.6-1.4-1-2.4-1c-1,0-1.8,0.3-2.4,1
		c-0.6,0.6-0.9,1.5-0.9,2.5c0,1,0.3,1.9,0.9,2.5c0.6,0.6,1.4,1,2.4,1C144.9,82.7,145.7,82.4,146.3,81.8z M142.6,80.9
		c-0.3-0.4-0.5-1-0.5-1.7c0-0.7,0.2-1.2,0.5-1.7c0.3-0.4,0.8-0.6,1.3-0.6c0.6,0,1,0.2,1.3,0.6c0.3,0.4,0.5,1,0.5,1.7
		c0,0.7-0.2,1.3-0.5,1.7c-0.3,0.4-0.8,0.6-1.3,0.6C143.3,81.5,142.9,81.3,142.6,80.9z"/>
	<polygon fill="#272525" points="148.2,75.9 148.2,82.6 149.6,82.6 149.6,79.7 152.4,79.7 152.4,82.6 153.8,82.6 153.8,75.9 
		152.4,75.9 152.4,78.4 149.6,78.4 149.6,75.9 	"/>
	<polygon fill="#272525" points="156.6,75.9 155.1,75.9 155.1,82.6 156.6,82.6 156.6,79.7 159.3,79.7 159.3,82.6 160.8,82.6 
		160.8,75.9 159.3,75.9 159.3,78.4 156.6,78.4 	"/>
	<rect x="167.8" y="75.9" fill="#272525" width="1.5" height="6.7"/>
	<path fill="#272525" d="M164.7,78.3h-1.2v-2.4h-1.5v6.7h2.6c0.8,0,1.3-0.2,1.8-0.5c0.4-0.4,0.7-0.9,0.7-1.6c0-0.7-0.2-1.2-0.7-1.6
		C166,78.5,165.4,78.3,164.7,78.3z M164.6,81.4h-1v-1.9h1c0.8,0,1.1,0.3,1.1,1C165.7,81.1,165.3,81.4,164.6,81.4z"/>
	<polygon fill="#272525" points="170.6,82.6 175.6,82.6 175.6,81.3 172,81.3 172,79.7 175.3,79.7 175.3,78.6 172,78.6 172,77.1 
		175.6,77.1 175.6,75.9 170.6,75.9 	"/>
	<path fill="#272525" d="M179.9,81.8c0.6,0.6,1.4,1,2.3,1c0.9,0,1.6-0.2,2.1-0.7c0.5-0.5,0.8-1.2,0.9-2h-1.5c-0.1,1-0.6,1.5-1.5,1.5
		c-0.5,0-1-0.2-1.3-0.6c-0.3-0.4-0.5-1-0.5-1.6c0-0.4,0.1-0.8,0.2-1.1s0.3-0.6,0.6-0.8s0.6-0.3,1-0.3c0.4,0,0.7,0.1,1,0.3
		c0.3,0.2,0.4,0.5,0.5,0.9h1.4c-0.1-0.7-0.4-1.3-0.9-1.7c-0.5-0.4-1.2-0.7-2-0.7c-1,0-1.8,0.3-2.4,1c-0.6,0.7-0.9,1.5-0.9,2.5
		C179,80.3,179.3,81.1,179.9,81.8z"/>
	<polygon fill="#272525" points="191.9,82.6 191.9,75.9 190.2,75.9 187.7,80.5 187.7,80.5 187.7,75.9 186.2,75.9 186.2,82.6 
		187.9,82.6 190.4,77.9 190.4,77.9 190.4,82.6 	"/>
	<path fill="#272525" d="M192.9,79.2c0,1.1,0.3,1.9,0.9,2.5s1.4,1,2.3,1c0.9,0,1.6-0.2,2.1-0.7c0.5-0.5,0.8-1.2,0.9-2h-1.5
		c-0.1,1-0.6,1.5-1.5,1.5c-0.5,0-1-0.2-1.3-0.6c-0.3-0.4-0.5-1-0.5-1.6c0-0.4,0.1-0.8,0.2-1.1s0.3-0.6,0.6-0.8
		c0.3-0.2,0.6-0.3,1-0.3c0.4,0,0.7,0.1,1,0.3c0.3,0.2,0.4,0.5,0.5,0.9h1.4c-0.1-0.7-0.4-1.3-0.9-1.7c-0.5-0.4-1.2-0.7-2-0.7
		c-1,0-1.8,0.3-2.4,1C193.2,77.4,192.9,78.2,192.9,79.2z"/>
	<polygon fill="#272525" points="199.6,77.1 201.6,77.1 201.6,82.6 203.1,82.6 203.1,77.1 205.1,77.1 205.1,75.9 199.6,75.9 	"/>
	<polygon fill="#272525" points="205.8,82.6 210.9,82.6 210.9,81.3 207.3,81.3 207.3,79.7 210.5,79.7 210.5,78.6 207.3,78.6 
		207.3,77.1 210.8,77.1 210.8,75.9 205.8,75.9 	"/>
	<polygon fill="#272525" points="211.9,75.9 211.9,82.6 213.3,82.6 213.3,77.9 215,82.6 216.1,82.6 217.7,77.8 217.7,82.6 
		219.1,82.6 219.1,75.9 217.1,75.9 215.5,80.5 214,75.9 	"/>
	<rect x="226.2" y="75.9" fill="#272525" width="1.5" height="6.7"/>
	<path fill="#272525" d="M220.4,75.9v6.7h2.6c0.8,0,1.3-0.2,1.8-0.5c0.4-0.4,0.7-0.9,0.7-1.6c0-0.7-0.2-1.2-0.7-1.6
		c-0.4-0.4-1-0.5-1.7-0.5h-1.2v-2.4H220.4z M222.9,79.5c0.8,0,1.1,0.3,1.1,1c0,0.6-0.4,1-1.1,1h-1v-1.9H222.9z"/>
</g>
</svg>
